<svg width="33" height="33" viewBox="0 0 33 33" xmlns="http://www.w3.org/2000/svg"><title>C22E96A2-96D0-418F-8AD0-D17973AFB6B8</title><path d="M0 0v27.5L11 33l11-5.5L33 33V5.5l-3.695-1.805c.136.551.258 1.254.258 1.805 0 .412.007.834-.13 1.246l.817.387v21.312l-6.875-3.48v-4.469L22 22.688v1.804l-1.246.516-8.379 4.297V6.445l2.063-.816V5.37c0-.963.146-1.916.558-2.879L11 4.125 0 0zm22 0c-3.025 0-5.5 2.475-5.5 5.5 0 4.676 5.5 13.32 5.5 13.32s5.5-8.644 5.5-13.32C27.5 2.475 25.025 0 22 0zm0 3.438c1.1 0 2.063.962 2.063 2.062 0 1.1-.963 2.063-2.063 2.063S19.937 6.6 19.937 5.5 20.9 3.437 22 3.437zm-19.25.558l7.305 2.75.945.258v22.988l-8.25-4.125V3.997z" fill="#FFF" fill-rule="evenodd"/></svg>